<svg xmlns="http://www.w3.org/2000/svg" xmlns:xlink="http://www.w3.org/1999/xlink" width="1100" zoomAndPan="magnify" viewBox="0 0 824.88 412.499988" height="550" preserveAspectRatio="xMidYMid meet" version="1.0"><defs><g/><clipPath id="7120bb5092"><path d="M 6 41.199219 L 555 41.199219 L 555 270 L 6 270 Z M 6 41.199219 " clip-rule="nonzero"/></clipPath><clipPath id="5130c0296e"><path d="M 165 278 L 254 278 L 254 313.871094 L 165 313.871094 Z M 165 278 " clip-rule="nonzero"/></clipPath><clipPath id="af86c09412"><path d="M 757 217 L 824.320312 217 L 824.320312 308 L 757 308 Z M 757 217 " clip-rule="nonzero"/></clipPath><clipPath id="5c8634f57a"><path d="M 255 285 L 824.320312 285 L 824.320312 363 L 255 363 Z M 255 285 " clip-rule="nonzero"/></clipPath></defs><g clip-path="url(#7120bb5092)"><path fill="#10b5cb" d="M 175.355469 201.527344 C 208.996094 196.164062 240.96875 182.960938 250.9375 148.460938 C 256.992188 127.503906 261.195312 88.96875 238.882812 75.34375 C 221.128906 64.503906 195.726562 67.296875 175.898438 67.25 C 142.703125 67.167969 109.507812 72.023438 77.730469 81.605469 C 61.960938 86.363281 49.09375 90.726562 38.144531 99.902344 C 35.820312 101.847656 30.8125 106.511719 25.859375 113.554688 C 16.429688 126.949219 12.753906 141.363281 11.203125 150.78125 C 10.890625 158.105469 10.453125 174.421875 18.589844 188.679688 C 20.683594 192.347656 23.191406 195.675781 26.863281 198.390625 C 32.746094 202.738281 40.050781 204.332031 48.601562 204.589844 C 90.089844 205.828125 134.253906 208.085938 175.355469 201.527344 Z M 17.828125 259.242188 C 10.066406 251.535156 8.273438 241.242188 7.238281 225.039062 C 4.714844 185.433594 8.8125 154.371094 10.601562 148.042969 C 11.269531 142.609375 12.382812 135.65625 14.175781 127.511719 C 17.296875 113.359375 23.597656 97.683594 27.105469 85.9375 C 35.179688 58.902344 99.992188 54.765625 124.492188 50.453125 C 174.011719 41.734375 211.027344 41.207031 227.410156 41.335938 C 246.832031 41.480469 258.835938 42.691406 267.796875 43.941406 C 290.425781 47.078125 308.214844 52.4375 325.121094 58.269531 C 371.554688 74.28125 407.4375 92.609375 414.601562 96.222656 C 504.003906 141.34375 555.304688 173.917969 554.414062 175.523438 C 553.601562 176.980469 511.554688 148.429688 450.191406 142.949219 C 437.070312 141.777344 405.949219 139 401.988281 149.464844 C 396.363281 164.324219 449.136719 196.257812 451.492188 197.667969 C 480.8125 215.203125 507.210938 222.046875 514.589844 223.457031 C 501.386719 222.210938 427.226562 215.898438 381.140625 165.097656 C 370.960938 153.875 358.28125 136.21875 342.058594 137.738281 C 334.390625 138.457031 327.640625 143.328125 310.792969 165.097656 C 284.515625 199.042969 273.34375 223.160156 271.707031 222.421875 C 269.808594 221.558594 278.730469 186.246094 302.972656 150.765625 C 320.40625 125.253906 340.050781 108.003906 354.386719 97.21875 C 345.125 92.601562 331.660156 87.160156 314.699219 84.324219 C 303.769531 82.5 293.9375 82.183594 285.726562 82.515625 C 290.652344 84.585938 294.113281 89.453125 294.113281 95.136719 L 294.113281 148.894531 C 294.113281 156.449219 287.988281 162.578125 280.433594 162.578125 C 276.417969 162.578125 272.804688 160.84375 270.304688 158.09375 C 268.628906 173.007812 266.886719 187.914062 265.078125 202.8125 C 263.03125 219.777344 260.894531 236.738281 258.679688 253.6875 C 256.605469 269.761719 178.582031 268.191406 167.789062 268.664062 C 128.046875 270.398438 88.230469 270.382812 48.496094 268.609375 C 33.007812 267.917969 23.679688 265.035156 17.828125 259.242188 " fill-opacity="1" fill-rule="nonzero"/></g><path fill="#10b5cb" d="M 516.632812 223.722656 C 516.613281 223.785156 515.898438 223.707031 514.589844 223.457031 C 515.941406 223.585938 516.652344 223.660156 516.632812 223.722656 " fill-opacity="1" fill-rule="nonzero"/><g clip-path="url(#5130c0296e)"><path fill="#10b5cb" d="M 172.472656 287.382812 C 173.046875 285.652344 174.617188 284.460938 176.433594 284.359375 C 198.292969 283.164062 218.988281 281.289062 238.382812 278.953125 C 246.46875 277.984375 253.585938 284.28125 253.585938 292.421875 L 253.585938 295.675781 C 253.585938 302.636719 248.324219 308.46875 241.402344 309.175781 C 219.175781 311.441406 195.292969 313.140625 169.925781 313.945312 C 166.851562 314.042969 164.617188 311.050781 165.585938 308.132812 L 172.472656 287.382812 " fill-opacity="1" fill-rule="nonzero"/></g><path fill="#10b5cb" d="M 1.316406 292.75 C 1.320312 292.65625 1.328125 292.566406 1.332031 292.476562 C 1.703125 284.644531 8.617188 278.753906 16.402344 279.644531 C 30.59375 281.257812 45.503906 282.636719 61.074219 283.675781 C 63.03125 283.804688 64.671875 285.203125 65.101562 287.121094 L 69.414062 306.484375 C 70.058594 309.371094 67.734375 312.0625 64.78125 311.855469 C 46.746094 310.566406 29.527344 308.859375 13.210938 306.859375 C 6.160156 305.996094 0.976562 299.839844 1.316406 292.75 " fill-opacity="1" fill-rule="nonzero"/><path fill="#10b5cb" d="M 60.109375 107.285156 L 195.601562 171.121094 C 195.601562 171.121094 151.304688 154.183594 60.109375 107.285156 " fill-opacity="1" fill-rule="nonzero"/><path fill="#10b5cb" d="M 215.980469 171.121094 C 215.980469 171.121094 171.683594 154.183594 80.488281 107.285156 L 215.980469 171.121094 " fill-opacity="1" fill-rule="nonzero"/><g fill="#10b5cb" fill-opacity="1"><g transform="translate(252.425369, 306.133898)"><g><path d="M 16.578125 -16.6875 L 15.78125 -15.046875 C 15.78125 -13.878906 17.425781 -12.757812 20.71875 -11.6875 C 24.019531 -10.613281 27.644531 -10.078125 31.59375 -10.078125 C 35.539062 -10.078125 39.878906 -10.660156 44.609375 -11.828125 C 49.347656 -13.003906 53.46875 -14.441406 56.96875 -16.140625 C 60.46875 -17.847656 63.359375 -19.628906 65.640625 -21.484375 C 67.929688 -23.347656 69.078125 -24.96875 69.078125 -26.34375 C 69.078125 -28.082031 67.050781 -29.703125 63 -31.203125 C 58.957031 -32.703125 53.082031 -34.347656 45.375 -36.140625 C 37.664062 -37.941406 32.019531 -40.21875 28.4375 -42.96875 C 24.851562 -45.726562 23.0625 -49.078125 23.0625 -53.015625 C 23.0625 -56.960938 24.476562 -60.738281 27.3125 -64.34375 C 30.144531 -67.945312 33.835938 -71.144531 38.390625 -73.9375 C 42.941406 -76.726562 47.910156 -79.210938 53.296875 -81.390625 C 64.421875 -85.890625 74.738281 -88.140625 84.25 -88.140625 C 87.894531 -88.140625 91.113281 -87.816406 93.90625 -87.171875 C 99.25 -85.910156 101.921875 -84.25 101.921875 -82.1875 C 101.921875 -80.125 101.738281 -78.71875 101.375 -77.96875 C 101.007812 -77.21875 100.710938 -76.71875 100.484375 -76.46875 C 100.265625 -76.226562 99.984375 -75.988281 99.640625 -75.75 C 99.296875 -75.507812 99.039062 -75.328125 98.875 -75.203125 C 97.09375 -73.703125 92.21875 -72.773438 84.25 -72.421875 C 81.5 -72.296875 80 -72.148438 79.75 -71.984375 C 79.507812 -71.828125 79.296875 -71.75 79.109375 -71.75 C 78.929688 -71.75 78.722656 -71.910156 78.484375 -72.234375 C 78.242188 -72.554688 78.125 -73.082031 78.125 -73.8125 C 78.125 -74.539062 78.910156 -75.875 80.484375 -77.8125 C 75.546875 -77.53125 70.273438 -76.394531 64.671875 -74.40625 C 59.066406 -72.425781 54.203125 -70.191406 50.078125 -67.703125 C 45.953125 -65.222656 42.507812 -62.773438 39.75 -60.359375 C 37 -57.953125 35.625 -56.253906 35.625 -55.265625 C 35.625 -54.273438 35.929688 -53.457031 36.546875 -52.8125 C 38.242188 -50.988281 42.957031 -49.085938 50.6875 -47.109375 C 58.695312 -45.035156 64.035156 -43.375 66.703125 -42.125 C 69.378906 -40.875 71.597656 -39.679688 73.359375 -38.546875 C 75.117188 -37.410156 76.523438 -36.253906 77.578125 -35.078125 C 80.046875 -32.242188 81.28125 -29.367188 81.28125 -26.453125 C 81.28125 -23.546875 80.5 -20.816406 78.9375 -18.265625 C 77.382812 -15.722656 75.035156 -13.253906 71.890625 -10.859375 C 68.753906 -8.472656 65.066406 -6.347656 60.828125 -4.484375 C 51.515625 -0.316406 40.425781 1.765625 27.5625 1.765625 C 18.164062 1.765625 12.175781 -0.722656 9.59375 -5.703125 C 8.90625 -6.960938 8.5625 -8.269531 8.5625 -9.625 C 8.5625 -10.976562 8.875 -12.203125 9.5 -13.296875 C 10.125 -14.390625 10.882812 -15.21875 11.78125 -15.78125 C 13.519531 -16.875 14.753906 -17.421875 15.484375 -17.421875 C 16.210938 -17.421875 16.578125 -17.175781 16.578125 -16.6875 Z M 16.578125 -16.6875 "/></g></g></g><g fill="#10b5cb" fill-opacity="1"><g transform="translate(335.5121, 306.133898)"><g><path d="M 84.796875 -85.15625 C 86.046875 -87.945312 86.9375 -89.34375 87.46875 -89.34375 L 87.765625 -89.34375 C 88.378906 -89.34375 89.613281 -88.695312 91.46875 -87.40625 C 93.332031 -86.113281 94.265625 -84.898438 94.265625 -83.765625 C 94.265625 -82.179688 89.082031 -69.957031 78.71875 -47.09375 C 68.363281 -24.238281 62.425781 -11.421875 60.90625 -8.640625 C 59.394531 -5.867188 58.351562 -4.019531 57.78125 -3.09375 C 57.21875 -2.164062 56.453125 -1.132812 55.484375 0 C 53.742188 2.144531 51.578125 3.21875 48.984375 3.21875 C 47.929688 3.21875 47 3.347656 46.1875 3.609375 C 45.382812 3.867188 44.898438 4 44.734375 4 C 43.441406 4 42.796875 3.695312 42.796875 3.09375 C 42.796875 2.96875 42.96875 2.46875 43.3125 1.59375 C 43.65625 0.726562 48.273438 -9.085938 57.171875 -27.859375 C 47.671875 -28.222656 39.316406 -28.503906 32.109375 -28.703125 C 25.191406 -20.003906 18.921875 -10.898438 13.296875 -1.390625 C 12.609375 -0.0546875 11.957031 0.878906 11.34375 1.421875 C 10.738281 1.972656 9.910156 2.25 8.859375 2.25 C 7.804688 2.25 6.671875 1.710938 5.453125 0.640625 C 4.242188 -0.429688 3.640625 -1.675781 3.640625 -3.09375 C 3.640625 -7.144531 8.859375 -15.804688 19.296875 -29.078125 C 14.398438 -29.078125 11.296875 -28.953125 9.984375 -28.703125 C 8.671875 -28.460938 7.832031 -28.34375 7.46875 -28.34375 C 6.375 -28.34375 5.828125 -29.265625 5.828125 -31.109375 C 5.828125 -32.953125 6.910156 -34.570312 9.078125 -35.96875 C 11.242188 -37.363281 14.144531 -38.0625 17.78125 -38.0625 C 18.0625 -38.0625 18.566406 -38.082031 19.296875 -38.125 C 21.804688 -38.238281 24.378906 -38.335938 27.015625 -38.421875 C 35.835938 -48.785156 45.0625 -58.394531 54.6875 -67.25 C 64.320312 -76.113281 72.660156 -82.328125 79.703125 -85.890625 C 80.828125 -86.453125 81.722656 -86.722656 82.390625 -86.703125 C 83.066406 -86.679688 83.867188 -86.164062 84.796875 -85.15625 Z M 80.546875 -76.609375 C 65.773438 -65.390625 52.28125 -52.660156 40.0625 -38.421875 C 47.226562 -38.265625 54.472656 -37.960938 61.796875 -37.515625 C 69.160156 -53.015625 75.410156 -66.046875 80.546875 -76.609375 Z M 80.546875 -76.609375 "/></g></g></g><g fill="#10b5cb" fill-opacity="1"><g transform="translate(408.524033, 306.133898)"><g><path d="M 23.546875 -33.203125 C 22.421875 -33.203125 21.859375 -33.910156 21.859375 -35.328125 C 21.859375 -36.378906 22.332031 -37.53125 23.28125 -38.78125 C 24.226562 -40.039062 24.800781 -40.867188 25 -41.265625 C 25.207031 -41.671875 25.742188 -42.300781 26.609375 -43.15625 C 27.484375 -44.007812 28.253906 -44.515625 28.921875 -44.671875 C 29.585938 -44.835938 30.953125 -45.019531 33.015625 -45.21875 C 39.328125 -45.820312 46.207031 -46.164062 53.65625 -46.25 C 61.75 -58.507812 68.347656 -67.613281 73.453125 -73.5625 C 65.878906 -72.1875 56.585938 -71.5 45.578125 -71.5 C 30.648438 -71.5 23.1875 -74.835938 23.1875 -81.515625 C 23.1875 -83.421875 24.144531 -85.082031 26.0625 -86.5 C 27.988281 -87.914062 30.414062 -88.625 33.34375 -88.625 C 36.28125 -88.625 37.75 -88.28125 37.75 -87.59375 C 37.75 -87.226562 37.296875 -87.046875 36.390625 -87.046875 C 35.484375 -87.046875 34.632812 -86.710938 33.84375 -86.046875 C 33.050781 -85.378906 32.65625 -84.738281 32.65625 -84.125 C 32.65625 -83.195312 34.632812 -82.507812 38.59375 -82.0625 C 42.5625 -81.613281 48.679688 -81.390625 56.953125 -81.390625 C 65.234375 -81.390625 74.210938 -82.140625 83.890625 -83.640625 C 87.085938 -86.273438 90.09375 -88.257812 92.90625 -89.59375 C 95.71875 -90.925781 98.578125 -91.59375 101.484375 -91.59375 C 104.398438 -91.59375 106.300781 -90.941406 107.1875 -89.640625 C 108.082031 -88.347656 108.539062 -87.378906 108.5625 -86.734375 C 108.582031 -86.085938 108.101562 -85.238281 107.125 -84.1875 C 106.15625 -83.132812 104.800781 -82.0625 103.0625 -80.96875 C 98.976562 -78.457031 93.617188 -76.960938 86.984375 -76.484375 C 79.898438 -67.535156 72.59375 -57.414062 65.0625 -46.125 C 68.1875 -46.007812 71.101562 -45.78125 73.8125 -45.4375 C 76.519531 -45.09375 77.875 -44.03125 77.875 -42.25 C 77.875 -41.519531 76.722656 -40.125 74.421875 -38.0625 C 74.171875 -37.78125 73.863281 -37.351562 73.5 -36.78125 C 72.851562 -35.8125 72.21875 -35.328125 71.59375 -35.328125 C 70.96875 -35.328125 70.25 -35.40625 69.4375 -35.5625 C 66.28125 -35.6875 63.914062 -35.75 62.34375 -35.75 L 58.390625 -35.6875 C 44.148438 -13.507812 36.796875 -1.984375 36.328125 -1.109375 C 35.859375 -0.242188 35.347656 0.40625 34.796875 0.84375 C 34.253906 1.289062 33.578125 1.515625 32.765625 1.515625 C 31.960938 1.515625 30.832031 1.382812 29.375 1.125 C 27.914062 0.863281 26.820312 0.539062 26.09375 0.15625 C 25.375 -0.226562 25.015625 -0.710938 25.015625 -1.296875 C 25.015625 -1.890625 25.191406 -2.734375 25.546875 -3.828125 C 26.523438 -6.535156 33.328125 -16.992188 45.953125 -35.203125 C 37.734375 -34.796875 31.21875 -34.375 26.40625 -33.9375 Z M 100.640625 -88.015625 C 99.992188 -87.804688 99.203125 -87.484375 98.265625 -87.046875 Z M 100.640625 -88.015625 "/></g></g></g><g fill="#10b5cb" fill-opacity="1"><g transform="translate(480.686286, 306.133898)"><g><path d="M 23.546875 -33.203125 C 22.421875 -33.203125 21.859375 -33.910156 21.859375 -35.328125 C 21.859375 -36.378906 22.332031 -37.53125 23.28125 -38.78125 C 24.226562 -40.039062 24.800781 -40.867188 25 -41.265625 C 25.207031 -41.671875 25.742188 -42.300781 26.609375 -43.15625 C 27.484375 -44.007812 28.253906 -44.515625 28.921875 -44.671875 C 29.585938 -44.835938 30.953125 -45.019531 33.015625 -45.21875 C 39.328125 -45.820312 46.207031 -46.164062 53.65625 -46.25 C 61.75 -58.507812 68.347656 -67.613281 73.453125 -73.5625 C 65.878906 -72.1875 56.585938 -71.5 45.578125 -71.5 C 30.648438 -71.5 23.1875 -74.835938 23.1875 -81.515625 C 23.1875 -83.421875 24.144531 -85.082031 26.0625 -86.5 C 27.988281 -87.914062 30.414062 -88.625 33.34375 -88.625 C 36.28125 -88.625 37.75 -88.28125 37.75 -87.59375 C 37.75 -87.226562 37.296875 -87.046875 36.390625 -87.046875 C 35.484375 -87.046875 34.632812 -86.710938 33.84375 -86.046875 C 33.050781 -85.378906 32.65625 -84.738281 32.65625 -84.125 C 32.65625 -83.195312 34.632812 -82.507812 38.59375 -82.0625 C 42.5625 -81.613281 48.679688 -81.390625 56.953125 -81.390625 C 65.234375 -81.390625 74.210938 -82.140625 83.890625 -83.640625 C 87.085938 -86.273438 90.09375 -88.257812 92.90625 -89.59375 C 95.71875 -90.925781 98.578125 -91.59375 101.484375 -91.59375 C 104.398438 -91.59375 106.300781 -90.941406 107.1875 -89.640625 C 108.082031 -88.347656 108.539062 -87.378906 108.5625 -86.734375 C 108.582031 -86.085938 108.101562 -85.238281 107.125 -84.1875 C 106.15625 -83.132812 104.800781 -82.0625 103.0625 -80.96875 C 98.976562 -78.457031 93.617188 -76.960938 86.984375 -76.484375 C 79.898438 -67.535156 72.59375 -57.414062 65.0625 -46.125 C 68.1875 -46.007812 71.101562 -45.78125 73.8125 -45.4375 C 76.519531 -45.09375 77.875 -44.03125 77.875 -42.25 C 77.875 -41.519531 76.722656 -40.125 74.421875 -38.0625 C 74.171875 -37.78125 73.863281 -37.351562 73.5 -36.78125 C 72.851562 -35.8125 72.21875 -35.328125 71.59375 -35.328125 C 70.96875 -35.328125 70.25 -35.40625 69.4375 -35.5625 C 66.28125 -35.6875 63.914062 -35.75 62.34375 -35.75 L 58.390625 -35.6875 C 44.148438 -13.507812 36.796875 -1.984375 36.328125 -1.109375 C 35.859375 -0.242188 35.347656 0.40625 34.796875 0.84375 C 34.253906 1.289062 33.578125 1.515625 32.765625 1.515625 C 31.960938 1.515625 30.832031 1.382812 29.375 1.125 C 27.914062 0.863281 26.820312 0.539062 26.09375 0.15625 C 25.375 -0.226562 25.015625 -0.710938 25.015625 -1.296875 C 25.015625 -1.890625 25.191406 -2.734375 25.546875 -3.828125 C 26.523438 -6.535156 33.328125 -16.992188 45.953125 -35.203125 C 37.734375 -34.796875 31.21875 -34.375 26.40625 -33.9375 Z M 100.640625 -88.015625 C 99.992188 -87.804688 99.203125 -87.484375 98.265625 -87.046875 Z M 100.640625 -88.015625 "/></g></g></g><g fill="#10b5cb" fill-opacity="1"><g transform="translate(552.848539, 306.133898)"><g><path d="M 61.96875 -88.015625 L 64.828125 -88.140625 C 65.878906 -88.140625 66.40625 -87.734375 66.40625 -86.921875 C 66.40625 -86.679688 66.363281 -86.5 66.28125 -86.375 C 46.9375 -57.925781 28.867188 -30.046875 12.078125 -2.734375 C 11.191406 -1.273438 10.40625 -0.445312 9.71875 -0.25 C 9.675781 -0.25 9.472656 -0.164062 9.109375 0 C 7.078125 0.769531 5.65625 1.15625 4.84375 1.15625 C 4.039062 1.15625 3.597656 1.175781 3.515625 1.21875 C 3.148438 1.625 2.710938 1.828125 2.203125 1.828125 C 1.703125 1.828125 1.367188 1.816406 1.203125 1.796875 C 1.046875 1.773438 0.585938 1.609375 -0.171875 1.296875 C -0.941406 0.992188 -1.328125 0.765625 -1.328125 0.609375 C -1.328125 -1.378906 -1.25 -2.570312 -1.09375 -2.96875 C -0.238281 -5.84375 4.429688 -13.945312 12.921875 -27.28125 C 21.421875 -40.613281 30.070312 -53.625 38.875 -66.3125 C 47.675781 -79 53.007812 -86.070312 54.875 -87.53125 C 55.4375 -87.976562 56.1875 -88.203125 57.125 -88.203125 Z M 61.96875 -88.015625 "/></g></g></g><g fill="#10b5cb" fill-opacity="1"><g transform="translate(587.685489, 306.133898)"><g><path d="M 38.90625 -62.34375 C 39.507812 -62.34375 39.8125 -62 39.8125 -61.3125 C 39.8125 -61.0625 39.710938 -60.835938 39.515625 -60.640625 C 36.117188 -57.242188 32.191406 -55.546875 27.734375 -55.546875 C 26.679688 -55.546875 25.507812 -56.140625 24.21875 -57.328125 C 22.925781 -58.523438 22.28125 -60.253906 22.28125 -62.515625 C 22.28125 -64.785156 23.65625 -67.304688 26.40625 -70.078125 C 29.15625 -72.847656 32.988281 -75.476562 37.90625 -77.96875 C 42.820312 -80.457031 48.960938 -82.671875 56.328125 -84.609375 C 63.691406 -86.554688 70.304688 -87.53125 76.171875 -87.53125 C 82.046875 -87.53125 86.863281 -87.050781 90.625 -86.09375 C 94.382812 -85.144531 97.328125 -83.972656 99.453125 -82.578125 C 101.578125 -81.179688 103.328125 -79.613281 104.703125 -77.875 C 107.015625 -74.957031 108.171875 -71.992188 108.171875 -68.984375 C 108.171875 -65.972656 107.195312 -62.867188 105.25 -59.671875 C 103.3125 -56.472656 100.789062 -53.628906 97.6875 -51.140625 C 94.59375 -48.648438 91.046875 -46.332031 87.046875 -44.1875 C 79.554688 -40.21875 71.539062 -37.304688 63 -35.453125 C 64.457031 -33.953125 67.539062 -30.195312 72.25 -24.1875 C 76.96875 -18.175781 81.28125 -13.144531 85.1875 -9.09375 C 89.09375 -5.050781 92.117188 -3.03125 94.265625 -3.03125 L 96.265625 -3.765625 C 96.710938 -3.765625 96.9375 -3.59375 96.9375 -3.25 C 96.9375 -2.90625 96.195312 -1.910156 94.71875 -0.265625 C 93.238281 1.367188 91.953125 2.609375 90.859375 3.453125 C 89.773438 4.304688 88.289062 4.734375 86.40625 4.734375 C 84.519531 4.734375 82.382812 3.820312 80 2 C 77.613281 0.175781 75.003906 -2.390625 72.171875 -5.703125 C 69.335938 -9.023438 66.785156 -12.148438 64.515625 -15.078125 C 62.253906 -18.015625 59.664062 -21.472656 56.75 -25.453125 C 53.84375 -29.441406 51.84375 -32.144531 50.75 -33.5625 C 50.34375 -32.914062 49.304688 -31.304688 47.640625 -28.734375 C 45.984375 -26.171875 44.769531 -24.28125 44 -23.0625 C 43.238281 -21.851562 42.128906 -20.082031 40.671875 -17.75 C 39.210938 -15.425781 38.078125 -13.554688 37.265625 -12.140625 C 35.046875 -8.378906 33.5 -5.566406 32.625 -3.703125 C 31.757812 -1.835938 30.332031 -0.90625 28.34375 -0.90625 L 26.21875 -0.96875 L 24.40625 -0.90625 C 21.894531 -0.90625 20.640625 -1.957031 20.640625 -4.0625 C 20.640625 -5.644531 21.316406 -7.898438 22.671875 -10.828125 C 24.023438 -13.765625 31.21875 -24.710938 44.25 -43.671875 C 57.28125 -62.628906 64.460938 -72.742188 65.796875 -74.015625 C 67.128906 -75.296875 68.117188 -76.015625 68.765625 -76.171875 C 69.253906 -76.535156 69.582031 -76.71875 69.75 -76.71875 L 70.84375 -76.546875 L 71.875 -76.71875 C 72.238281 -76.71875 72.5625 -76.566406 72.84375 -76.265625 C 73.125 -75.960938 73.328125 -75.769531 73.453125 -75.6875 C 75.148438 -74.4375 76 -73.382812 76 -72.53125 C 76 -71.6875 75.785156 -70.867188 75.359375 -70.078125 C 74.929688 -69.285156 73.765625 -67.515625 71.859375 -64.765625 C 69.960938 -62.015625 67.46875 -58.441406 64.375 -54.046875 C 61.28125 -49.660156 59.046875 -46.476562 57.671875 -44.5 C 60.984375 -44.65625 64.96875 -45.660156 69.625 -47.515625 C 74.28125 -49.378906 78.640625 -51.617188 82.703125 -54.234375 C 86.765625 -56.847656 90.242188 -59.679688 93.140625 -62.734375 C 96.035156 -65.785156 97.484375 -68.445312 97.484375 -70.71875 C 97.484375 -71.925781 96.851562 -73.023438 95.59375 -74.015625 C 94.34375 -75.015625 92.765625 -75.796875 90.859375 -76.359375 C 87.054688 -77.492188 82.769531 -78.0625 78 -78.0625 C 73.226562 -78.0625 67.175781 -77.03125 59.84375 -74.96875 C 52.519531 -72.90625 47.175781 -70.929688 43.8125 -69.046875 C 40.457031 -67.160156 38.03125 -65.5625 36.53125 -64.25 C 35.039062 -62.9375 34.296875 -62.015625 34.296875 -61.484375 C 34.296875 -61.203125 34.707031 -61.0625 35.53125 -61.0625 C 36.363281 -61.0625 37.101562 -61.273438 37.75 -61.703125 C 38.394531 -62.128906 38.78125 -62.34375 38.90625 -62.34375 Z M 38.90625 -62.34375 "/></g></g></g><g fill="#10b5cb" fill-opacity="1"><g transform="translate(678.844195, 306.133898)"><g><path d="M 59.359375 -86.25 L 63.796875 -87.21875 C 64.929688 -87.21875 65.84375 -86.972656 66.53125 -86.484375 C 67.21875 -86.003906 67.5625 -85.550781 67.5625 -85.125 C 67.5625 -84.707031 67.457031 -84.09375 67.25 -83.28125 C 67.050781 -82.46875 65.410156 -74.570312 62.328125 -59.59375 C 59.253906 -44.625 57.007812 -33.457031 55.59375 -26.09375 C 62.476562 -35.445312 70.515625 -46.960938 79.703125 -60.640625 C 88.890625 -74.316406 94.25 -83.398438 95.78125 -87.890625 C 96.269531 -89.304688 96.894531 -90.398438 97.65625 -91.171875 C 98.425781 -91.941406 99.113281 -92.394531 99.71875 -92.53125 C 100.332031 -92.675781 101.265625 -92.75 102.515625 -92.75 C 103.773438 -92.75 105.265625 -92.472656 106.984375 -91.921875 C 108.703125 -91.378906 109.5625 -90.484375 109.5625 -89.234375 C 109.5625 -86.835938 106.019531 -79.953125 98.9375 -68.578125 C 91.851562 -57.210938 83.769531 -45.132812 74.6875 -32.34375 C 65.601562 -19.5625 58.003906 -9.445312 51.890625 -2 C 50.804688 -0.664062 49.484375 0 47.921875 0 C 46.359375 0 44.71875 -0.269531 43 -0.8125 C 41.28125 -1.363281 40.421875 -2.328125 40.421875 -3.703125 C 40.421875 -8.148438 44.328125 -29.535156 52.140625 -67.859375 C 45.460938 -59.203125 37.347656 -47.144531 27.796875 -31.6875 C 17.847656 -15.695312 12.222656 -5.78125 10.921875 -1.9375 C 10.191406 0.363281 9.363281 1.695312 8.4375 2.0625 C 7.789062 2.34375 7.101562 2.484375 6.375 2.484375 L 1.578125 3.03125 C 0.648438 3.03125 -0.207031 2.765625 -1 2.234375 C -1.789062 1.710938 -2.1875 1.171875 -2.1875 0.609375 C -2.1875 -1.015625 0.046875 -5.851562 4.515625 -13.90625 C 8.992188 -21.957031 14.21875 -30.707031 20.1875 -40.15625 C 26.15625 -49.601562 32.394531 -58.796875 38.90625 -67.734375 C 45.425781 -76.679688 50.460938 -82.691406 54.015625 -85.765625 C 54.742188 -86.410156 55.578125 -86.734375 56.515625 -86.734375 Z M 59.359375 -86.25 "/></g></g></g><g clip-path="url(#af86c09412)"><g fill="#10b5cb" fill-opacity="1"><g transform="translate(759.260498, 306.133898)"><g><path d="M 61.96875 -88.015625 L 64.828125 -88.140625 C 65.878906 -88.140625 66.40625 -87.734375 66.40625 -86.921875 C 66.40625 -86.679688 66.363281 -86.5 66.28125 -86.375 C 46.9375 -57.925781 28.867188 -30.046875 12.078125 -2.734375 C 11.191406 -1.273438 10.40625 -0.445312 9.71875 -0.25 C 9.675781 -0.25 9.472656 -0.164062 9.109375 0 C 7.078125 0.769531 5.65625 1.15625 4.84375 1.15625 C 4.039062 1.15625 3.597656 1.175781 3.515625 1.21875 C 3.148438 1.625 2.710938 1.828125 2.203125 1.828125 C 1.703125 1.828125 1.367188 1.816406 1.203125 1.796875 C 1.046875 1.773438 0.585938 1.609375 -0.171875 1.296875 C -0.941406 0.992188 -1.328125 0.765625 -1.328125 0.609375 C -1.328125 -1.378906 -1.25 -2.570312 -1.09375 -2.96875 C -0.238281 -5.84375 4.429688 -13.945312 12.921875 -27.28125 C 21.421875 -40.613281 30.070312 -53.625 38.875 -66.3125 C 47.675781 -79 53.007812 -86.070312 54.875 -87.53125 C 55.4375 -87.976562 56.1875 -88.203125 57.125 -88.203125 Z M 61.96875 -88.015625 "/></g></g></g></g><g clip-path="url(#5c8634f57a)"><path stroke-linecap="butt" transform="matrix(0.749091, 0.00133722, -0.00133722, 0.749091, 293.470603, 320.051763)" fill="none" stroke-linejoin="miter" d="M 0.000342712 4.498937 L 704.609764 4.497855 " stroke="#10b5cb" stroke-width="9" stroke-opacity="1" stroke-miterlimit="4"/></g><g fill="#10b5cb" fill-opacity="1"><g transform="translate(327.073845, 366.487187)"><g><path d="M 18.34375 -17.859375 L 11.46875 -17.859375 L 11.46875 0 L 7.3125 0 L 7.3125 -17.859375 L 0.421875 -17.859375 L 0.421875 -21.53125 L 18.34375 -21.53125 Z M 18.34375 -17.859375 "/></g></g></g><g fill="#10b5cb" fill-opacity="1"><g transform="translate(357.447213, 366.487187)"><g><path d="M 11.4375 0.15625 C 9.851562 0.15625 8.421875 -0.148438 7.140625 -0.765625 C 5.859375 -1.390625 4.753906 -2.210938 3.828125 -3.234375 C 2.910156 -4.253906 2.195312 -5.421875 1.6875 -6.734375 C 1.1875 -8.046875 0.9375 -9.390625 0.9375 -10.765625 C 0.9375 -12.203125 1.203125 -13.578125 1.734375 -14.890625 C 2.273438 -16.203125 3.015625 -17.363281 3.953125 -18.375 C 4.898438 -19.382812 6.019531 -20.1875 7.3125 -20.78125 C 8.601562 -21.382812 10.007812 -21.6875 11.53125 -21.6875 C 13.082031 -21.6875 14.5 -21.367188 15.78125 -20.734375 C 17.070312 -20.097656 18.171875 -19.265625 19.078125 -18.234375 C 19.984375 -17.203125 20.6875 -16.023438 21.1875 -14.703125 C 21.695312 -13.390625 21.953125 -12.054688 21.953125 -10.703125 C 21.953125 -9.265625 21.6875 -7.894531 21.15625 -6.59375 C 20.632812 -5.289062 19.910156 -4.140625 18.984375 -3.140625 C 18.054688 -2.140625 16.941406 -1.335938 15.640625 -0.734375 C 14.347656 -0.140625 12.945312 0.15625 11.4375 0.15625 Z M 5.1875 -10.765625 C 5.1875 -9.835938 5.328125 -8.9375 5.609375 -8.0625 C 5.890625 -7.195312 6.296875 -6.429688 6.828125 -5.765625 C 7.367188 -5.097656 8.03125 -4.5625 8.8125 -4.15625 C 9.59375 -3.75 10.476562 -3.546875 11.46875 -3.546875 C 12.476562 -3.546875 13.367188 -3.753906 14.140625 -4.171875 C 14.921875 -4.585938 15.578125 -5.140625 16.109375 -5.828125 C 16.648438 -6.515625 17.054688 -7.285156 17.328125 -8.140625 C 17.597656 -9.003906 17.734375 -9.878906 17.734375 -10.765625 C 17.734375 -11.691406 17.585938 -12.585938 17.296875 -13.453125 C 17.003906 -14.328125 16.585938 -15.097656 16.046875 -15.765625 C 15.515625 -16.429688 14.859375 -16.960938 14.078125 -17.359375 C 13.304688 -17.753906 12.4375 -17.953125 11.46875 -17.953125 C 10.457031 -17.953125 9.554688 -17.742188 8.765625 -17.328125 C 7.972656 -16.910156 7.3125 -16.363281 6.78125 -15.6875 C 6.257812 -15.007812 5.863281 -14.238281 5.59375 -13.375 C 5.320312 -12.519531 5.1875 -11.648438 5.1875 -10.765625 Z M 5.1875 -10.765625 "/></g></g></g><g fill="#10b5cb" fill-opacity="1"><g transform="translate(391.972155, 366.487187)"><g><path d="M 11.34375 -3.546875 C 12.332031 -3.546875 13.164062 -3.75 13.84375 -4.15625 C 14.519531 -4.5625 15.066406 -5.085938 15.484375 -5.734375 C 15.898438 -6.378906 16.191406 -7.117188 16.359375 -7.953125 C 16.535156 -8.796875 16.625 -9.660156 16.625 -10.546875 L 16.625 -21.53125 L 20.78125 -21.53125 L 20.78125 -10.546875 C 20.78125 -9.078125 20.601562 -7.691406 20.25 -6.390625 C 19.894531 -5.097656 19.335938 -3.96875 18.578125 -3 C 17.816406 -2.03125 16.835938 -1.257812 15.640625 -0.6875 C 14.453125 -0.125 13.03125 0.15625 11.375 0.15625 C 9.65625 0.15625 8.191406 -0.140625 6.984375 -0.734375 C 5.785156 -1.335938 4.8125 -2.128906 4.0625 -3.109375 C 3.3125 -4.085938 2.769531 -5.222656 2.4375 -6.515625 C 2.101562 -7.816406 1.9375 -9.160156 1.9375 -10.546875 L 1.9375 -21.53125 L 6.125 -21.53125 L 6.125 -10.546875 C 6.125 -9.640625 6.207031 -8.765625 6.375 -7.921875 C 6.550781 -7.085938 6.847656 -6.347656 7.265625 -5.703125 C 7.679688 -5.054688 8.222656 -4.535156 8.890625 -4.140625 C 9.554688 -3.742188 10.375 -3.546875 11.34375 -3.546875 Z M 11.34375 -3.546875 "/></g></g></g><g fill="#10b5cb" fill-opacity="1"><g transform="translate(426.315256, 366.487187)"><g><path d="M 2.25 0 L 2.25 -21.53125 L 11.765625 -21.53125 C 12.753906 -21.53125 13.664062 -21.320312 14.5 -20.90625 C 15.34375 -20.5 16.066406 -19.953125 16.671875 -19.265625 C 17.285156 -18.585938 17.765625 -17.816406 18.109375 -16.953125 C 18.453125 -16.097656 18.625 -15.238281 18.625 -14.375 C 18.625 -12.976562 18.273438 -11.707031 17.578125 -10.5625 C 16.878906 -9.425781 15.929688 -8.601562 14.734375 -8.09375 L 19.65625 0 L 14.953125 0 L 10.546875 -7.21875 L 6.421875 -7.21875 L 6.421875 0 Z M 6.421875 -10.890625 L 11.671875 -10.890625 C 12.054688 -10.890625 12.414062 -10.976562 12.75 -11.15625 C 13.082031 -11.34375 13.367188 -11.59375 13.609375 -11.90625 C 13.859375 -12.21875 14.050781 -12.582031 14.1875 -13 C 14.332031 -13.425781 14.40625 -13.882812 14.40625 -14.375 C 14.40625 -14.882812 14.320312 -15.347656 14.15625 -15.765625 C 14 -16.191406 13.785156 -16.5625 13.515625 -16.875 C 13.242188 -17.1875 12.929688 -17.425781 12.578125 -17.59375 C 12.222656 -17.769531 11.863281 -17.859375 11.5 -17.859375 L 6.421875 -17.859375 Z M 6.421875 -10.890625 "/></g></g></g><g fill="#10b5cb" fill-opacity="1"><g transform="translate(458.082593, 366.487187)"><g/></g></g><g fill="#10b5cb" fill-opacity="1"><g transform="translate(476.971024, 366.487187)"><g><path d="M 8.375 -21.53125 L 12.078125 -21.53125 L 20.265625 0 L 15.953125 0 L 13.953125 -5.375 L 6.421875 -5.375 L 4.453125 0 L 0.15625 0 Z M 13.1875 -8.3125 L 10.21875 -16.765625 L 7.125 -8.3125 Z M 13.1875 -8.3125 "/></g></g></g><g fill="#10b5cb" fill-opacity="1"><g transform="translate(508.950486, 366.487187)"><g><path d="M 6.421875 -13.796875 L 6.421875 0 L 2.25 0 L 2.25 -21.53125 L 5.484375 -21.53125 L 16.703125 -7.40625 L 16.703125 -21.5 L 20.890625 -21.5 L 20.890625 0 L 17.5 0 Z M 6.421875 -13.796875 "/></g></g></g><g fill="#10b5cb" fill-opacity="1"><g transform="translate(543.687519, 366.487187)"><g><path d="M 2.25 0 L 2.25 -21.53125 L 10.0625 -21.53125 C 11.820312 -21.53125 13.363281 -21.242188 14.6875 -20.671875 C 16.019531 -20.109375 17.128906 -19.34375 18.015625 -18.375 C 18.898438 -17.40625 19.566406 -16.269531 20.015625 -14.96875 C 20.460938 -13.664062 20.6875 -12.273438 20.6875 -10.796875 C 20.6875 -9.160156 20.4375 -7.679688 19.9375 -6.359375 C 19.445312 -5.035156 18.734375 -3.898438 17.796875 -2.953125 C 16.867188 -2.015625 15.753906 -1.285156 14.453125 -0.765625 C 13.148438 -0.253906 11.6875 0 10.0625 0 Z M 16.46875 -10.796875 C 16.46875 -11.828125 16.328125 -12.773438 16.046875 -13.640625 C 15.765625 -14.515625 15.347656 -15.265625 14.796875 -15.890625 C 14.253906 -16.515625 13.582031 -17 12.78125 -17.34375 C 11.976562 -17.6875 11.070312 -17.859375 10.0625 -17.859375 L 6.421875 -17.859375 L 6.421875 -3.671875 L 10.0625 -3.671875 C 11.09375 -3.671875 12.007812 -3.851562 12.8125 -4.21875 C 13.613281 -4.582031 14.28125 -5.082031 14.8125 -5.71875 C 15.351562 -6.351562 15.765625 -7.101562 16.046875 -7.96875 C 16.328125 -8.84375 16.46875 -9.785156 16.46875 -10.796875 Z M 16.46875 -10.796875 "/></g></g></g><g fill="#10b5cb" fill-opacity="1"><g transform="translate(595.888744, 366.487187)"><g><path d="M 18.34375 -17.859375 L 11.46875 -17.859375 L 11.46875 0 L 7.3125 0 L 7.3125 -17.859375 L 0.421875 -17.859375 L 0.421875 -21.53125 L 18.34375 -21.53125 Z M 18.34375 -17.859375 "/></g></g></g><g fill="#10b5cb" fill-opacity="1"><g transform="translate(626.262109, 366.487187)"><g><path d="M 2.25 0 L 2.25 -21.53125 L 11.765625 -21.53125 C 12.753906 -21.53125 13.664062 -21.320312 14.5 -20.90625 C 15.34375 -20.5 16.066406 -19.953125 16.671875 -19.265625 C 17.285156 -18.585938 17.765625 -17.816406 18.109375 -16.953125 C 18.453125 -16.097656 18.625 -15.238281 18.625 -14.375 C 18.625 -12.976562 18.273438 -11.707031 17.578125 -10.5625 C 16.878906 -9.425781 15.929688 -8.601562 14.734375 -8.09375 L 19.65625 0 L 14.953125 0 L 10.546875 -7.21875 L 6.421875 -7.21875 L 6.421875 0 Z M 6.421875 -10.890625 L 11.671875 -10.890625 C 12.054688 -10.890625 12.414062 -10.976562 12.75 -11.15625 C 13.082031 -11.34375 13.367188 -11.59375 13.609375 -11.90625 C 13.859375 -12.21875 14.050781 -12.582031 14.1875 -13 C 14.332031 -13.425781 14.40625 -13.882812 14.40625 -14.375 C 14.40625 -14.882812 14.320312 -15.347656 14.15625 -15.765625 C 14 -16.191406 13.785156 -16.5625 13.515625 -16.875 C 13.242188 -17.1875 12.929688 -17.425781 12.578125 -17.59375 C 12.222656 -17.769531 11.863281 -17.859375 11.5 -17.859375 L 6.421875 -17.859375 Z M 6.421875 -10.890625 "/></g></g></g><g fill="#10b5cb" fill-opacity="1"><g transform="translate(658.029446, 366.487187)"><g><path d="M 8.375 -21.53125 L 12.078125 -21.53125 L 20.265625 0 L 15.953125 0 L 13.953125 -5.375 L 6.421875 -5.375 L 4.453125 0 L 0.15625 0 Z M 13.1875 -8.3125 L 10.21875 -16.765625 L 7.125 -8.3125 Z M 13.1875 -8.3125 "/></g></g></g><g fill="#10b5cb" fill-opacity="1"><g transform="translate(690.008908, 366.487187)"><g><path d="M 4.453125 -21.53125 L 10.28125 -5.25 L 16.046875 -21.53125 L 20.4375 -21.53125 L 12.046875 0 L 8.515625 0 L 0.0625 -21.53125 Z M 4.453125 -21.53125 "/></g></g></g><g fill="#10b5cb" fill-opacity="1"><g transform="translate(722.109559, 366.487187)"><g><path d="M 17.203125 -3.671875 L 17.203125 0 L 2.25 0 L 2.25 -21.53125 L 16.921875 -21.53125 L 16.921875 -17.859375 L 6.421875 -17.859375 L 6.421875 -12.671875 L 15.5 -12.671875 L 15.5 -9.28125 L 6.421875 -9.28125 L 6.421875 -3.671875 Z M 17.203125 -3.671875 "/></g></g></g><g fill="#10b5cb" fill-opacity="1"><g transform="translate(751.937485, 366.487187)"><g><path d="M 2.25 0 L 2.25 -21.53125 L 6.421875 -21.53125 L 6.421875 -3.671875 L 17.40625 -3.671875 L 17.40625 0 Z M 2.25 0 "/></g></g></g></svg>